<?xml version="1.0" encoding="utf-8"?>
<!-- Generator: Adobe Illustrator 16.0.0, SVG Export Plug-In . SVG Version: 6.00 Build 0)  -->
<!DOCTYPE svg PUBLIC "-//W3C//DTD SVG 1.1//EN" "http://www.w3.org/Graphics/SVG/1.1/DTD/svg11.dtd">
<svg version="1.1" id="圖層_1" xmlns="http://www.w3.org/2000/svg" xmlns:xlink="http://www.w3.org/1999/xlink" x="0px" y="0px"
	 width="35px" height="34px" viewBox="0 -1.5 35 34" enable-background="new 0 -1.5 35 34" xml:space="preserve">
<rect x="1" y="-1.5" fill="#FFFFFF" width="34" height="34"/>
<g>
	<path fill="#747474" d="M24.5,21.5c0,0.547-0.453,1-1,1h-11c-0.547,0-1-0.453-1-1v-10c0-0.547,0.453-1,1-1h1V9.75
		c0-0.688,0.563-1.25,1.25-1.25h0.5c0.688,0,1.25,0.563,1.25,1.25v0.75h3V9.75c0-0.688,0.563-1.25,1.25-1.25h0.5
		c0.688,0,1.25,0.563,1.25,1.25v0.75h1c0.547,0,1,0.453,1,1V21.5z M14.75,15.75V13.5H12.5v2.25H14.75z M14.75,18.75v-2.5H12.5v2.5
		H14.75z M14.75,21.5v-2.25H12.5v2.25H14.75z M15.5,9.75c0-0.133-0.117-0.25-0.25-0.25h-0.5c-0.132,0-0.25,0.117-0.25,0.25V12
		c0,0.133,0.117,0.25,0.25,0.25h0.5c0.133,0,0.25-0.117,0.25-0.25V9.75z M17.751,15.75V13.5h-2.5v2.25H17.751z M17.751,18.75v-2.5
		h-2.5v2.5H17.751z M17.751,21.5v-2.25h-2.5v2.25H17.751z M20.75,15.75V13.5h-2.5v2.25H20.75z M20.75,18.75v-2.5h-2.5v2.5H20.75z
		 M20.75,21.5v-2.25h-2.5v2.25H20.75z M21.5,9.75c0-0.133-0.117-0.25-0.25-0.25h-0.5c-0.133,0-0.25,0.117-0.25,0.25V12
		c0,0.133,0.117,0.25,0.25,0.25h0.5c0.133,0,0.25-0.117,0.25-0.25V9.75z M23.5,15.75V13.5h-2.25v2.25H23.5z M23.5,18.75v-2.5h-2.25
		v2.5H23.5z M23.5,21.5v-2.25h-2.25v2.25H23.5z"/>
</g>
<rect y="-1.5" fill="#AFAFAF" width="1" height="34"/>
</svg>
